<?xml version="1.0" standalone="no"?>
<!DOCTYPE svg PUBLIC "-//W3C//DTD SVG 1.1//EN"
  "http://www.w3.org/Graphics/SVG/1.1/DTD/svg11.dtd">
<svg xmlns="http://www.w3.org/2000/svg" version="1.1"
     width="1324px" height="1093px" viewBox="-15 -605 1324 1113">
  <defs>
    <style type="text/css"><![CDATA[
      .markmap-node {
        cursor: pointer;
      }

      .markmap-node-circle {
        fill: #fff;
        stroke-width: 1.5px;
      }

      .markmap-node-text {
        fill:  #000;
        font: 10px sans-serif;
      }

      .markmap-link {
        fill: none;
      }
    ]]></style>
  </defs>
  <g><path class="markmap-link" stroke="#929292" stroke-width="1" d="M260.3642578125,462.65625C290.3642578125,462.65625 290.3642578125,462.65625 320.3642578125,462.65625"></path><path class="markmap-link" stroke="#929292" stroke-width="1" d="M657.728515625,320.15625C687.728515625,320.15625 687.728515625,295.15625 717.728515625,295.15625"></path><path class="markmap-link" stroke="#929292" stroke-width="1" d="M657.728515625,320.15625C687.728515625,320.15625 687.728515625,320.15625 717.728515625,320.15625"></path><path class="markmap-link" stroke="#929292" stroke-width="1" d="M657.728515625,320.15625C687.728515625,320.15625 687.728515625,345.15625 717.728515625,345.15625"></path><path class="markmap-link" stroke="#929292" stroke-width="1" d="M319.802734375,347.65625C349.802734375,347.65625 349.802734375,320.15625 379.802734375,320.15625"></path><path class="markmap-link" stroke="#929292" stroke-width="1" d="M319.802734375,347.65625C349.802734375,347.65625 349.802734375,350.15625 379.802734375,350.15625"></path><path class="markmap-link" stroke="#929292" stroke-width="1" d="M319.802734375,347.65625C349.802734375,347.65625 349.802734375,375.15625 379.802734375,375.15625"></path><path class="markmap-link" stroke="#929292" stroke-width="1" d="M631.6689453125,252.65625C661.6689453125,252.65625 661.6689453125,240.15625 691.6689453125,240.15625"></path><path class="markmap-link" stroke="#929292" stroke-width="1" d="M631.6689453125,252.65625C661.6689453125,252.65625 661.6689453125,265.15625 691.6689453125,265.15625"></path><path class="markmap-link" stroke="#929292" stroke-width="1" d="M631.6689453125,197.65625C661.6689453125,197.65625 661.6689453125,185.15625 691.6689453125,185.15625"></path><path class="markmap-link" stroke="#929292" stroke-width="1" d="M631.6689453125,197.65625C661.6689453125,197.65625 661.6689453125,210.15625 691.6689453125,210.15625"></path><path class="markmap-link" stroke="#929292" stroke-width="1" d="M631.6689453125,142.65625C661.6689453125,142.65625 661.6689453125,130.15625 691.6689453125,130.15625"></path><path class="markmap-link" stroke="#929292" stroke-width="1" d="M631.6689453125,142.65625C661.6689453125,142.65625 661.6689453125,155.15625 691.6689453125,155.15625"></path><path class="markmap-link" stroke="#929292" stroke-width="1" d="M571.6689453125,197.65625C601.6689453125,197.65625 601.6689453125,142.65625 631.6689453125,142.65625"></path><path class="markmap-link" stroke="#929292" stroke-width="1" d="M571.6689453125,197.65625C601.6689453125,197.65625 601.6689453125,197.65625 631.6689453125,197.65625"></path><path class="markmap-link" stroke="#929292" stroke-width="1" d="M571.6689453125,197.65625C601.6689453125,197.65625 601.6689453125,252.65625 631.6689453125,252.65625"></path><path class="markmap-link" stroke="#929292" stroke-width="1" d="M638.32421875,75.15625C668.32421875,75.15625 668.32421875,50.15625 698.32421875,50.15625"></path><path class="markmap-link" stroke="#929292" stroke-width="1" d="M638.32421875,75.15625C668.32421875,75.15625 668.32421875,75.15625 698.32421875,75.15625"></path><path class="markmap-link" stroke="#929292" stroke-width="1" d="M638.32421875,75.15625C668.32421875,75.15625 668.32421875,100.15625 698.32421875,100.15625"></path><path class="markmap-link" stroke="#929292" stroke-width="1" d="M977.9150390625,-9.84375C1007.9150390625,-9.84375 1007.9150390625,-47.34375 1037.9150390625,-47.34375"></path><path class="markmap-link" stroke="#929292" stroke-width="1" d="M977.9150390625,-9.84375C1007.9150390625,-9.84375 1007.9150390625,-22.34375 1037.9150390625,-22.34375"></path><path class="markmap-link" stroke="#929292" stroke-width="1" d="M977.9150390625,-9.84375C1007.9150390625,-9.84375 1007.9150390625,2.65625 1037.9150390625,2.65625"></path><path class="markmap-link" stroke="#929292" stroke-width="1" d="M977.9150390625,-9.84375C1007.9150390625,-9.84375 1007.9150390625,27.65625 1037.9150390625,27.65625"></path><path class="markmap-link" stroke="#929292" stroke-width="1" d="M638.32421875,-28.59375C668.32421875,-28.59375 668.32421875,-47.34375 698.32421875,-47.34375"></path><path class="markmap-link" stroke="#929292" stroke-width="1" d="M638.32421875,-28.59375C668.32421875,-28.59375 668.32421875,-9.84375 698.32421875,-9.84375"></path><path class="markmap-link" stroke="#929292" stroke-width="1" d="M638.32421875,-89.84375C668.32421875,-89.84375 668.32421875,-102.34375 698.32421875,-102.34375"></path><path class="markmap-link" stroke="#929292" stroke-width="1" d="M638.32421875,-89.84375C668.32421875,-89.84375 668.32421875,-77.34375 698.32421875,-77.34375"></path><path class="markmap-link" stroke="#929292" stroke-width="1" d="M638.32421875,-144.84375C668.32421875,-144.84375 668.32421875,-157.34375 698.32421875,-157.34375"></path><path class="markmap-link" stroke="#929292" stroke-width="1" d="M638.32421875,-144.84375C668.32421875,-144.84375 668.32421875,-132.34375 698.32421875,-132.34375"></path><path class="markmap-link" stroke="#929292" stroke-width="1" d="M578.32421875,-34.84375C608.32421875,-34.84375 608.32421875,-144.84375 638.32421875,-144.84375"></path><path class="markmap-link" stroke="#929292" stroke-width="1" d="M578.32421875,-34.84375C608.32421875,-34.84375 608.32421875,-89.84375 638.32421875,-89.84375"></path><path class="markmap-link" stroke="#929292" stroke-width="1" d="M578.32421875,-34.84375C608.32421875,-34.84375 608.32421875,-28.59375 638.32421875,-28.59375"></path><path class="markmap-link" stroke="#929292" stroke-width="1" d="M578.32421875,-34.84375C608.32421875,-34.84375 608.32421875,20.15625 638.32421875,20.15625"></path><path class="markmap-link" stroke="#929292" stroke-width="1" d="M578.32421875,-34.84375C608.32421875,-34.84375 608.32421875,75.15625 638.32421875,75.15625"></path><path class="markmap-link" stroke="#929292" stroke-width="1" d="M409.28515625,81.40625C439.28515625,81.40625 439.28515625,-34.84375 469.28515625,-34.84375"></path><path class="markmap-link" stroke="#929292" stroke-width="1" d="M409.28515625,81.40625C439.28515625,81.40625 439.28515625,197.65625 469.28515625,197.65625"></path><path class="markmap-link" stroke="#929292" stroke-width="1" d="M206.9013671875,229.53125C236.9013671875,229.53125 236.9013671875,81.40625 266.9013671875,81.40625"></path><path class="markmap-link" stroke="#929292" stroke-width="1" d="M206.9013671875,229.53125C236.9013671875,229.53125 236.9013671875,347.65625 266.9013671875,347.65625"></path><path class="markmap-link" stroke="#929292" stroke-width="1" d="M206.9013671875,229.53125C236.9013671875,229.53125 236.9013671875,377.65625 266.9013671875,377.65625"></path><path class="markmap-link" stroke="#929292" stroke-width="1" d="M146.9013671875,361.09375C176.9013671875,361.09375 176.9013671875,229.53125 206.9013671875,229.53125"></path><path class="markmap-link" stroke="#929292" stroke-width="1" d="M146.9013671875,361.09375C176.9013671875,361.09375 176.9013671875,321.09375 206.9013671875,321.09375"></path><path class="markmap-link" stroke="#929292" stroke-width="1" d="M146.9013671875,361.09375C176.9013671875,361.09375 176.9013671875,407.65625 206.9013671875,407.65625"></path><path class="markmap-link" stroke="#929292" stroke-width="1" d="M146.9013671875,361.09375C176.9013671875,361.09375 176.9013671875,432.65625 206.9013671875,432.65625"></path><path class="markmap-link" stroke="#929292" stroke-width="1" d="M146.9013671875,361.09375C176.9013671875,361.09375 176.9013671875,462.65625 206.9013671875,462.65625"></path><path class="markmap-link" stroke="#929292" stroke-width="1" d="M146.9013671875,361.09375C176.9013671875,361.09375 176.9013671875,492.65625 206.9013671875,492.65625"></path><path class="markmap-link" stroke="#929292" stroke-width="1" d="M314.8271484375,-152.34375C344.8271484375,-152.34375 344.8271484375,-239.84375 374.8271484375,-239.84375"></path><path class="markmap-link" stroke="#929292" stroke-width="1" d="M314.8271484375,-152.34375C344.8271484375,-152.34375 344.8271484375,-214.84375 374.8271484375,-214.84375"></path><path class="markmap-link" stroke="#929292" stroke-width="1" d="M314.8271484375,-152.34375C344.8271484375,-152.34375 344.8271484375,-189.84375 374.8271484375,-189.84375"></path><path class="markmap-link" stroke="#929292" stroke-width="1" d="M314.8271484375,-152.34375C344.8271484375,-152.34375 344.8271484375,-164.84375 374.8271484375,-164.84375"></path><path class="markmap-link" stroke="#929292" stroke-width="1" d="M314.8271484375,-152.34375C344.8271484375,-152.34375 344.8271484375,-139.84375 374.8271484375,-139.84375"></path><path class="markmap-link" stroke="#929292" stroke-width="1" d="M314.8271484375,-152.34375C344.8271484375,-152.34375 344.8271484375,-114.84375 374.8271484375,-114.84375"></path><path class="markmap-link" stroke="#929292" stroke-width="1" d="M314.8271484375,-152.34375C344.8271484375,-152.34375 344.8271484375,-89.84375 374.8271484375,-89.84375"></path><path class="markmap-link" stroke="#929292" stroke-width="1" d="M314.8271484375,-152.34375C344.8271484375,-152.34375 344.8271484375,-64.84375 374.8271484375,-64.84375"></path><path class="markmap-link" stroke="#929292" stroke-width="1" d="M370.3984375,-312.34375C400.3984375,-312.34375 400.3984375,-324.84375 430.3984375,-324.84375"></path><path class="markmap-link" stroke="#929292" stroke-width="1" d="M370.3984375,-312.34375C400.3984375,-312.34375 400.3984375,-299.84375 430.3984375,-299.84375"></path><path class="markmap-link" stroke="#929292" stroke-width="1" d="M627.1962890625,-354.84375C657.1962890625,-354.84375 657.1962890625,-404.84375 687.1962890625,-404.84375"></path><path class="markmap-link" stroke="#929292" stroke-width="1" d="M627.1962890625,-354.84375C657.1962890625,-354.84375 657.1962890625,-379.84375 687.1962890625,-379.84375"></path><path class="markmap-link" stroke="#929292" stroke-width="1" d="M627.1962890625,-354.84375C657.1962890625,-354.84375 657.1962890625,-354.84375 687.1962890625,-354.84375"></path><path class="markmap-link" stroke="#929292" stroke-width="1" d="M627.1962890625,-354.84375C657.1962890625,-354.84375 657.1962890625,-329.84375 687.1962890625,-329.84375"></path><path class="markmap-link" stroke="#929292" stroke-width="1" d="M627.1962890625,-354.84375C657.1962890625,-354.84375 657.1962890625,-304.84375 687.1962890625,-304.84375"></path><path class="markmap-link" stroke="#929292" stroke-width="1" d="M567.1962890625,-354.84375C597.1962890625,-354.84375 597.1962890625,-354.84375 627.1962890625,-354.84375"></path><path class="markmap-link" stroke="#929292" stroke-width="1" d="M406.6005859375,-459.84375C436.6005859375,-459.84375 436.6005859375,-484.84375 466.6005859375,-484.84375"></path><path class="markmap-link" stroke="#929292" stroke-width="1" d="M406.6005859375,-459.84375C436.6005859375,-459.84375 436.6005859375,-459.84375 466.6005859375,-459.84375"></path><path class="markmap-link" stroke="#929292" stroke-width="1" d="M406.6005859375,-459.84375C436.6005859375,-459.84375 436.6005859375,-434.84375 466.6005859375,-434.84375"></path><path class="markmap-link" stroke="#929292" stroke-width="1" d="M302.6005859375,-447.34375C332.6005859375,-447.34375 332.6005859375,-539.84375 362.6005859375,-539.84375"></path><path class="markmap-link" stroke="#929292" stroke-width="1" d="M302.6005859375,-447.34375C332.6005859375,-447.34375 332.6005859375,-514.84375 362.6005859375,-514.84375"></path><path class="markmap-link" stroke="#929292" stroke-width="1" d="M302.6005859375,-447.34375C332.6005859375,-447.34375 332.6005859375,-459.84375 362.6005859375,-459.84375"></path><path class="markmap-link" stroke="#929292" stroke-width="1" d="M302.6005859375,-447.34375C332.6005859375,-447.34375 332.6005859375,-392.34375 362.6005859375,-392.34375"></path><path class="markmap-link" stroke="#929292" stroke-width="1" d="M302.6005859375,-447.34375C332.6005859375,-447.34375 332.6005859375,-354.84375 362.6005859375,-354.84375"></path><path class="markmap-link" stroke="#929292" stroke-width="1" d="M366.345703125,-569.84375C396.345703125,-569.84375 396.345703125,-569.84375 426.345703125,-569.84375"></path><path class="markmap-link" stroke="#929292" stroke-width="1" d="M201.9208984375,-361.09375C231.9208984375,-361.09375 231.9208984375,-569.84375 261.9208984375,-569.84375"></path><path class="markmap-link" stroke="#929292" stroke-width="1" d="M201.9208984375,-361.09375C231.9208984375,-361.09375 231.9208984375,-447.34375 261.9208984375,-447.34375"></path><path class="markmap-link" stroke="#929292" stroke-width="1" d="M201.9208984375,-361.09375C231.9208984375,-361.09375 231.9208984375,-312.34375 261.9208984375,-312.34375"></path><path class="markmap-link" stroke="#929292" stroke-width="1" d="M201.9208984375,-361.09375C231.9208984375,-361.09375 231.9208984375,-269.84375 261.9208984375,-269.84375"></path><path class="markmap-link" stroke="#929292" stroke-width="1" d="M201.9208984375,-361.09375C231.9208984375,-361.09375 231.9208984375,-152.34375 261.9208984375,-152.34375"></path><path class="markmap-link" stroke="#929292" stroke-width="1" d="M41.2314453125,0C71.2314453125,0 71.2314453125,-361.09375 101.2314453125,-361.09375"></path><path class="markmap-link" stroke="#929292" stroke-width="1" d="M41.2314453125,0C71.2314453125,0 71.2314453125,-129.84375 101.2314453125,-129.84375"></path><path class="markmap-link" stroke="#929292" stroke-width="1" d="M41.2314453125,0C71.2314453125,0 71.2314453125,361.09375 101.2314453125,361.09375"></path><g class="markmap-node" transform="translate(206.9013671875,492.65625)"><rect class="markmap-node-rect" y="-10" x="-1" width="125.5068359375" height="20" fill="#dfdfdf" rx="10" ry="10" stroke="#929292" stroke-width="1"></rect><circle class="markmap-node-circle" cx="123.5068359375" stroke="#929292" r="4.5" style="display: none;"></circle><text class="markmap-node-text" x="10" dy="3" text-anchor="start" style="fill-opacity: 1;">Copyright and License</text></g><g class="markmap-node" transform="translate(320.3642578125,462.65625)"><rect class="markmap-node-rect" y="-10" x="-1" width="144.5498046875" height="20" fill="#dfdfdf" rx="10" ry="10" stroke="#929292" stroke-width="1"></rect><circle class="markmap-node-circle" cx="142.5498046875" stroke="#929292" r="4.5"></circle><text class="markmap-node-text" x="10" dy="3" text-anchor="start" style="fill-opacity: 1;">mincloud1501@naver.com</text></g><g class="markmap-node" transform="translate(206.9013671875,462.65625)"><rect class="markmap-node-rect" y="-10" x="-1" width="55.462890625" height="20" fill="#dfdfdf" rx="10" ry="10" stroke="#929292" stroke-width="1"></rect><circle class="markmap-node-circle" cx="53.462890625" stroke="#929292" r="4.5"></circle><text class="markmap-node-text" x="10" dy="3" text-anchor="start" style="fill-opacity: 1;">Author</text></g><g class="markmap-node" transform="translate(206.9013671875,432.65625)"><rect class="markmap-node-rect" y="-10" x="-1" width="66.0244140625" height="20" fill="#dfdfdf" rx="10" ry="10" stroke="#929292" stroke-width="1"></rect><circle class="markmap-node-circle" cx="64.0244140625" stroke="#929292" r="4.5" style="display: none;"></circle><text class="markmap-node-text" x="10" dy="3" text-anchor="start" style="fill-opacity: 1;">See Also</text></g><g class="markmap-node" transform="translate(206.9013671875,407.65625)"><rect class="markmap-node-rect" y="-10" x="-1" width="79.9208984375" height="20" fill="#dfdfdf" rx="10" ry="10" stroke="#929292" stroke-width="1"></rect><circle class="markmap-node-circle" cx="77.9208984375" stroke="#929292" r="4.5" style="display: none;"></circle><text class="markmap-node-text" x="10" dy="3" text-anchor="start" style="fill-opacity: 1;">Contributing</text></g><g class="markmap-node" transform="translate(206.9013671875,321.09375)"><rect class="markmap-node-rect" y="-10" x="-1" width="48.79296875" height="20" fill="#dfdfdf" rx="10" ry="10" stroke="#929292" stroke-width="1"></rect><circle class="markmap-node-circle" cx="46.79296875" stroke="#929292" r="4.5" style="display: none;"></circle><text class="markmap-node-text" x="10" dy="3" text-anchor="start" style="fill-opacity: 1;">Bugs</text></g><g class="markmap-node" transform="translate(266.9013671875,377.65625)"><rect class="markmap-node-rect" y="-10" x="-1" width="67.1279296875" height="20" fill="#dfdfdf" rx="10" ry="10" stroke="#929292" stroke-width="1"></rect><circle class="markmap-node-circle" cx="65.1279296875" stroke="#929292" r="4.5" style="display: none;"></circle><text class="markmap-node-text" x="10" dy="3" text-anchor="start" style="fill-opacity: 1;">Mindmap</text></g><g class="markmap-node" transform="translate(379.802734375,375.15625)"><rect class="markmap-node-rect" y="-10" x="-1" width="313.2509765625" height="20" fill="#dfdfdf" rx="10" ry="10" stroke="#929292" stroke-width="1"></rect><circle class="markmap-node-circle" cx="311.2509765625" stroke="#929292" r="4.5" style="display: none;"></circle><text class="markmap-node-text" x="10" dy="3" text-anchor="start" style="fill-opacity: 1;">생성/수정/삭제를 위해 k8s object를 동작시키려면, 쿠버네티스 …</text></g><g class="markmap-node" transform="translate(379.802734375,350.15625)"><rect class="markmap-node-rect" y="-10" x="-1" width="287.1572265625" height="20" fill="#dfdfdf" rx="10" ry="10" stroke="#929292" stroke-width="1"></rect><circle class="markmap-node-circle" cx="285.1572265625" stroke="#929292" r="4.5" style="display: none;"></circle><text class="markmap-node-text" x="10" dy="3" text-anchor="start" style="fill-opacity: 1;">object를 생성하게 되면, k8s는 그 object 생성을 보장하기…</text></g><g class="markmap-node" transform="translate(717.728515625,345.15625)"><rect class="markmap-node-rect" y="-10" x="-1" width="272.73828125" height="20" fill="#dfdfdf" rx="10" ry="10" stroke="#929292" stroke-width="1"></rect><circle class="markmap-node-circle" cx="270.73828125" stroke="#929292" r="4.5" style="display: none;"></circle><text class="markmap-node-text" x="10" dy="3" text-anchor="start" style="fill-opacity: 1;">그 application이 어떻게 재구동 정책, upgrade, 그리고…</text></g><g class="markmap-node" transform="translate(717.728515625,320.15625)"><rect class="markmap-node-rect" y="-10" x="-1" width="206.6103515625" height="20" fill="#dfdfdf" rx="10" ry="10" stroke="#929292" stroke-width="1"></rect><circle class="markmap-node-circle" cx="204.6103515625" stroke="#929292" r="4.5" style="display: none;"></circle><text class="markmap-node-text" x="10" dy="3" text-anchor="start" style="fill-opacity: 1;">그 application이 이용할 수 있는 resource</text></g><g class="markmap-node" transform="translate(717.728515625,295.15625)"><rect class="markmap-node-rect" y="-10" x="-1" width="302.15234375" height="20" fill="#dfdfdf" rx="10" ry="10" stroke="#929292" stroke-width="1"></rect><circle class="markmap-node-circle" cx="300.15234375" stroke="#929292" r="4.5" style="display: none;"></circle><text class="markmap-node-text" x="10" dy="3" text-anchor="start" style="fill-opacity: 1;">어떤 컨테이너화된 application이 동작 중인지 (그리고 어느 n…</text></g><g class="markmap-node" transform="translate(379.802734375,320.15625)"><rect class="markmap-node-rect" y="-10" x="-1" width="279.92578125" height="20" fill="#dfdfdf" rx="10" ry="10" stroke="#929292" stroke-width="1"></rect><circle class="markmap-node-circle" cx="277.92578125" stroke="#929292" r="4.5"></circle><text class="markmap-node-text" x="10" dy="3" text-anchor="start" style="fill-opacity: 1;">k8s object는 k8s system에서 영속성을 가지는 개체로 k…</text></g><g class="markmap-node" transform="translate(266.9013671875,347.65625)"><rect class="markmap-node-rect" y="-10" x="-1" width="54.9013671875" height="20" fill="#dfdfdf" rx="10" ry="10" stroke="#929292" stroke-width="1"></rect><circle class="markmap-node-circle" cx="52.9013671875" stroke="#929292" r="4.5"></circle><text class="markmap-node-text" x="10" dy="3" text-anchor="start" style="fill-opacity: 1;">Object</text></g><g class="markmap-node" transform="translate(691.6689453125,265.15625)"><rect class="markmap-node-rect" y="-10" x="-1" width="233.2900390625" height="20" fill="#dfdfdf" rx="10" ry="10" stroke="#929292" stroke-width="1"></rect><circle class="markmap-node-circle" cx="231.2900390625" stroke="#929292" r="4.5" style="display: none;"></circle><text class="markmap-node-text" x="10" dy="3" text-anchor="start" style="fill-opacity: 1;">k8s 여러 container runtime 지원 (Docker,con…</text></g><g class="markmap-node" transform="translate(691.6689453125,240.15625)"><rect class="markmap-node-rect" y="-10" x="-1" width="183.265625" height="20" fill="#dfdfdf" rx="10" ry="10" stroke="#929292" stroke-width="1"></rect><circle class="markmap-node-circle" cx="181.265625" stroke="#929292" r="4.5" style="display: none;"></circle><text class="markmap-node-text" x="10" dy="3" text-anchor="start" style="fill-opacity: 1;">container 실행을 담당하는 software</text></g><g class="markmap-node" transform="translate(631.6689453125,252.65625)"><rect class="markmap-node-rect" y="-10" x="-1" width="2" height="20" fill="#dfdfdf" rx="10" ry="10" stroke="#929292" stroke-width="1"></rect><circle class="markmap-node-circle" cx="0" stroke="#929292" r="4.5"></circle><text class="markmap-node-text" x="10" dy="3" text-anchor="start" style="fill-opacity: 1;"></text></g><g class="markmap-node" transform="translate(691.6689453125,210.15625)"><rect class="markmap-node-rect" y="-10" x="-1" width="315.4873046875" height="20" fill="#dfdfdf" rx="10" ry="10" stroke="#929292" stroke-width="1"></rect><circle class="markmap-node-circle" cx="313.4873046875" stroke="#929292" r="4.5" style="display: none;"></circle><text class="markmap-node-text" x="10" dy="3" text-anchor="start" style="fill-opacity: 1;">node의 network 규칙을 유지 관리하며 이 네트워크 규칙이 내부…</text></g><g class="markmap-node" transform="translate(691.6689453125,185.15625)"><rect class="markmap-node-rect" y="-10" x="-1" width="262.181640625" height="20" fill="#dfdfdf" rx="10" ry="10" stroke="#929292" stroke-width="1"></rect><circle class="markmap-node-circle" cx="260.181640625" stroke="#929292" r="4.5" style="display: none;"></circle><text class="markmap-node-text" x="10" dy="3" text-anchor="start" style="fill-opacity: 1;">kube-proxy는 cluster의 각 node에서 실행되는 netw…</text></g><g class="markmap-node" transform="translate(631.6689453125,197.65625)"><rect class="markmap-node-rect" y="-10" x="-1" width="2" height="20" fill="#dfdfdf" rx="10" ry="10" stroke="#929292" stroke-width="1"></rect><circle class="markmap-node-circle" cx="0" stroke="#929292" r="4.5"></circle><text class="markmap-node-text" x="10" dy="3" text-anchor="start" style="fill-opacity: 1;"></text></g><g class="markmap-node" transform="translate(691.6689453125,155.15625)"><rect class="markmap-node-rect" y="-10" x="-1" width="283.28515625" height="20" fill="#dfdfdf" rx="10" ry="10" stroke="#929292" stroke-width="1"></rect><circle class="markmap-node-circle" cx="281.28515625" stroke="#929292" r="4.5" style="display: none;"></circle><text class="markmap-node-text" x="10" dy="3" text-anchor="start" style="fill-opacity: 1;">Kubelet은 k8s를 통해 생성되지 않는 container는 관리하…</text></g><g class="markmap-node" transform="translate(691.6689453125,130.15625)"><rect class="markmap-node-rect" y="-10" x="-1" width="256.087890625" height="20" fill="#dfdfdf" rx="10" ry="10" stroke="#929292" stroke-width="1"></rect><circle class="markmap-node-circle" cx="254.087890625" stroke="#929292" r="4.5" style="display: none;"></circle><text class="markmap-node-text" x="10" dy="3" text-anchor="start" style="fill-opacity: 1;">cluster의 각 node에서 실행되는 agent. Kubelet은 …</text></g><g class="markmap-node" transform="translate(631.6689453125,142.65625)"><rect class="markmap-node-rect" y="-10" x="-1" width="2" height="20" fill="#dfdfdf" rx="10" ry="10" stroke="#929292" stroke-width="1"></rect><circle class="markmap-node-circle" cx="0" stroke="#929292" r="4.5"></circle><text class="markmap-node-text" x="10" dy="3" text-anchor="start" style="fill-opacity: 1;"></text></g><g class="markmap-node" transform="translate(469.28515625,197.65625)"><rect class="markmap-node-rect" y="-10" x="-1" width="104.3837890625" height="20" fill="#dfdfdf" rx="10" ry="10" stroke="#929292" stroke-width="1"></rect><circle class="markmap-node-circle" cx="102.3837890625" stroke="#929292" r="4.5"></circle><text class="markmap-node-text" x="10" dy="3" text-anchor="start" style="fill-opacity: 1;">Node Component</text></g><g class="markmap-node" transform="translate(698.32421875,100.15625)"><rect class="markmap-node-rect" y="-10" x="-1" width="268.861328125" height="20" fill="#dfdfdf" rx="10" ry="10" stroke="#929292" stroke-width="1"></rect><circle class="markmap-node-circle" cx="266.861328125" stroke="#929292" r="4.5" style="display: none;"></circle><text class="markmap-node-text" x="10" dy="3" text-anchor="start" style="fill-opacity: 1;">cloud vendor code와 k8s code가 서로 독립적으로 발…</text></g><g class="markmap-node" transform="translate(698.32421875,75.15625)"><rect class="markmap-node-rect" y="-10" x="-1" width="217.1865234375" height="20" fill="#dfdfdf" rx="10" ry="10" stroke="#929292" stroke-width="1"></rect><circle class="markmap-node-circle" cx="215.1865234375" stroke="#929292" r="4.5" style="display: none;"></circle><text class="markmap-node-text" x="10" dy="3" text-anchor="start" style="fill-opacity: 1;">cloud-controller-manager binary는 k8s re…</text></g><g class="markmap-node" transform="translate(698.32421875,50.15625)"><rect class="markmap-node-rect" y="-10" x="-1" width="254.92578125" height="20" fill="#dfdfdf" rx="10" ry="10" stroke="#929292" stroke-width="1"></rect><circle class="markmap-node-circle" cx="252.92578125" stroke="#929292" r="4.5" style="display: none;"></circle><text class="markmap-node-text" x="10" dy="3" text-anchor="start" style="fill-opacity: 1;">cloud 제공 사업자와 상호작용하는 controller를 작동</text></g><g class="markmap-node" transform="translate(638.32421875,75.15625)"><rect class="markmap-node-rect" y="-10" x="-1" width="2" height="20" fill="#dfdfdf" rx="10" ry="10" stroke="#929292" stroke-width="1"></rect><circle class="markmap-node-circle" cx="0" stroke="#929292" r="4.5"></circle><text class="markmap-node-text" x="10" dy="3" text-anchor="start" style="fill-opacity: 1;"></text></g><g class="markmap-node" transform="translate(638.32421875,20.15625)"><rect class="markmap-node-rect" y="-10" x="-1" width="267.7333984375" height="20" fill="#dfdfdf" rx="10" ry="10" stroke="#929292" stroke-width="1"></rect><circle class="markmap-node-circle" cx="265.7333984375" stroke="#929292" r="4.5" style="display: none;"></circle><text class="markmap-node-text" x="10" dy="3" text-anchor="start" style="fill-opacity: 1;">모든 cluster data를 담는 k8s backend 저장소로 사용…</text></g><g class="markmap-node" transform="translate(1037.9150390625,27.65625)"><rect class="markmap-node-rect" y="-10" x="-1" width="214.408203125" height="20" fill="#dfdfdf" rx="10" ry="10" stroke="#929292" stroke-width="1"></rect><circle class="markmap-node-circle" cx="212.408203125" stroke="#929292" r="4.5" style="display: none;"></circle><text class="markmap-node-text" x="10" dy="3" text-anchor="start" style="fill-opacity: 1;">service account &amp; token controller : 새로…</text></g><g class="markmap-node" transform="translate(1037.9150390625,2.65625)"><rect class="markmap-node-rect" y="-10" x="-1" width="207.220703125" height="20" fill="#dfdfdf" rx="10" ry="10" stroke="#929292" stroke-width="1"></rect><circle class="markmap-node-circle" cx="205.220703125" stroke="#929292" r="4.5" style="display: none;"></circle><text class="markmap-node-text" x="10" dy="3" text-anchor="start" style="fill-opacity: 1;">endpoint controller : endpoint object를 …</text></g><g class="markmap-node" transform="translate(1037.9150390625,-22.34375)"><rect class="markmap-node-rect" y="-10" x="-1" width="223.275390625" height="20" fill="#dfdfdf" rx="10" ry="10" stroke="#929292" stroke-width="1"></rect><circle class="markmap-node-circle" cx="221.275390625" stroke="#929292" r="4.5" style="display: none;"></circle><text class="markmap-node-text" x="10" dy="3" text-anchor="start" style="fill-opacity: 1;">replication controller : 시스템의 모든 replic…</text></g><g class="markmap-node" transform="translate(1037.9150390625,-47.34375)"><rect class="markmap-node-rect" y="-10" x="-1" width="257.7529296875" height="20" fill="#dfdfdf" rx="10" ry="10" stroke="#929292" stroke-width="1"></rect><circle class="markmap-node-circle" cx="255.7529296875" stroke="#929292" r="4.5" style="display: none;"></circle><text class="markmap-node-text" x="10" dy="3" text-anchor="start" style="fill-opacity: 1;">node controller : node가 down되었을 때 통지와 대…</text></g><g class="markmap-node" transform="translate(698.32421875,-9.84375)"><rect class="markmap-node-rect" y="-10" x="-1" width="281.5908203125" height="20" fill="#dfdfdf" rx="10" ry="10" stroke="#929292" stroke-width="1"></rect><circle class="markmap-node-circle" cx="279.5908203125" stroke="#929292" r="4.5"></circle><text class="markmap-node-text" x="10" dy="3" text-anchor="start" style="fill-opacity: 1;">논리적으로, 각 controller는 개별 process이지만, 복잡성…</text></g><g class="markmap-node" transform="translate(698.32421875,-47.34375)"><rect class="markmap-node-rect" y="-10" x="-1" width="205.501953125" height="20" fill="#dfdfdf" rx="10" ry="10" stroke="#929292" stroke-width="1"></rect><circle class="markmap-node-circle" cx="203.501953125" stroke="#929292" r="4.5" style="display: none;"></circle><text class="markmap-node-text" x="10" dy="3" text-anchor="start" style="fill-opacity: 1;">controller를 구동하는 master component</text></g><g class="markmap-node" transform="translate(638.32421875,-28.59375)"><rect class="markmap-node-rect" y="-10" x="-1" width="2" height="20" fill="#dfdfdf" rx="10" ry="10" stroke="#929292" stroke-width="1"></rect><circle class="markmap-node-circle" cx="0" stroke="#929292" r="4.5"></circle><text class="markmap-node-text" x="10" dy="3" text-anchor="start" style="fill-opacity: 1;"></text></g><g class="markmap-node" transform="translate(698.32421875,-77.34375)"><rect class="markmap-node-rect" y="-10" x="-1" width="353.783203125" height="20" fill="#dfdfdf" rx="10" ry="10" stroke="#929292" stroke-width="1"></rect><circle class="markmap-node-circle" cx="351.783203125" stroke="#929292" r="4.5" style="display: none;"></circle><text class="markmap-node-text" x="10" dy="3" text-anchor="start" style="fill-opacity: 1;">스케줄링 결정을 위해서 고려되는 요소는 리소스에 대한 개별 및 총체적 …</text></g><g class="markmap-node" transform="translate(698.32421875,-102.34375)"><rect class="markmap-node-rect" y="-10" x="-1" width="316.6201171875" height="20" fill="#dfdfdf" rx="10" ry="10" stroke="#929292" stroke-width="1"></rect><circle class="markmap-node-circle" cx="314.6201171875" stroke="#929292" r="4.5" style="display: none;"></circle><text class="markmap-node-text" x="10" dy="3" text-anchor="start" style="fill-opacity: 1;">node가 배정되지 않은 새로 생성된 pod를 감지하고, 구동될 nod…</text></g><g class="markmap-node" transform="translate(638.32421875,-89.84375)"><rect class="markmap-node-rect" y="-10" x="-1" width="2" height="20" fill="#dfdfdf" rx="10" ry="10" stroke="#929292" stroke-width="1"></rect><circle class="markmap-node-circle" cx="0" stroke="#929292" r="4.5"></circle><text class="markmap-node-text" x="10" dy="3" text-anchor="start" style="fill-opacity: 1;"></text></g><g class="markmap-node" transform="translate(698.32421875,-132.34375)"><rect class="markmap-node-rect" y="-10" x="-1" width="301.0341796875" height="20" fill="#dfdfdf" rx="10" ry="10" stroke="#929292" stroke-width="1"></rect><circle class="markmap-node-circle" cx="299.0341796875" stroke="#929292" r="4.5" style="display: none;"></circle><text class="markmap-node-text" x="10" dy="3" text-anchor="start" style="fill-opacity: 1;">kube-apiserver는 수평으로 확장되도록 디자인되어 더 많은 i…</text></g><g class="markmap-node" transform="translate(698.32421875,-157.34375)"><rect class="markmap-node-rect" y="-10" x="-1" width="255.51171875" height="20" fill="#dfdfdf" rx="10" ry="10" stroke="#929292" stroke-width="1"></rect><circle class="markmap-node-circle" cx="253.51171875" stroke="#929292" r="4.5" style="display: none;"></circle><text class="markmap-node-text" x="10" dy="3" text-anchor="start" style="fill-opacity: 1;">API 서버는 k8s API를 노출하는 k8s Control plane…</text></g><g class="markmap-node" transform="translate(638.32421875,-144.84375)"><rect class="markmap-node-rect" y="-10" x="-1" width="2" height="20" fill="#dfdfdf" rx="10" ry="10" stroke="#929292" stroke-width="1"></rect><circle class="markmap-node-circle" cx="0" stroke="#929292" r="4.5"></circle><text class="markmap-node-text" x="10" dy="3" text-anchor="start" style="fill-opacity: 1;"></text></g><g class="markmap-node" transform="translate(469.28515625,-34.84375)"><rect class="markmap-node-rect" y="-10" x="-1" width="111.0390625" height="20" fill="#dfdfdf" rx="10" ry="10" stroke="#929292" stroke-width="1"></rect><circle class="markmap-node-circle" cx="109.0390625" stroke="#929292" r="4.5"></circle><text class="markmap-node-text" x="10" dy="3" text-anchor="start" style="fill-opacity: 1;">Master Component</text></g><g class="markmap-node" transform="translate(266.9013671875,81.40625)"><rect class="markmap-node-rect" y="-10" x="-1" width="144.3837890625" height="20" fill="#dfdfdf" rx="10" ry="10" stroke="#929292" stroke-width="1"></rect><circle class="markmap-node-circle" cx="142.3837890625" stroke="#929292" r="4.5"></circle><text class="markmap-node-text" x="10" dy="3" text-anchor="start" style="fill-opacity: 1;">Component (Master/Node)</text></g><g class="markmap-node" transform="translate(206.9013671875,229.53125)"><rect class="markmap-node-rect" y="-10" x="-1" width="2" height="20" fill="#dfdfdf" rx="10" ry="10" stroke="#929292" stroke-width="1"></rect><circle class="markmap-node-circle" cx="0" stroke="#929292" r="4.5"></circle><text class="markmap-node-text" x="10" dy="3" text-anchor="start" style="fill-opacity: 1;"></text></g><g class="markmap-node" transform="translate(101.2314453125,361.09375)"><rect class="markmap-node-rect" y="-10" x="-1" width="47.669921875" height="20" fill="#dfdfdf" rx="10" ry="10" stroke="#929292" stroke-width="1"></rect><circle class="markmap-node-circle" cx="45.669921875" stroke="#929292" r="4.5"></circle><text class="markmap-node-text" x="10" dy="3" text-anchor="start" style="fill-opacity: 1;">MAP</text></g><g class="markmap-node" transform="translate(101.2314453125,-129.84375)"><rect class="markmap-node-rect" y="-10" x="-1" width="54.3447265625" height="20" fill="#dfdfdf" rx="10" ry="10" stroke="#929292" stroke-width="1"></rect><circle class="markmap-node-circle" cx="52.3447265625" stroke="#929292" r="4.5" style="display: none;"></circle><text class="markmap-node-text" x="10" dy="3" text-anchor="start" style="fill-opacity: 1;">Result</text></g><g class="markmap-node" transform="translate(374.8271484375,-64.84375)"><rect class="markmap-node-rect" y="-10" x="-1" width="138.2705078125" height="20" fill="#dfdfdf" rx="10" ry="10" stroke="#929292" stroke-width="1"></rect><circle class="markmap-node-circle" cx="136.2705078125" stroke="#929292" r="4.5" style="display: none;"></circle><text class="markmap-node-text" x="10" dy="3" text-anchor="start" style="fill-opacity: 1;">[kubProvisioning.sh 편집]</text></g><g class="markmap-node" transform="translate(374.8271484375,-89.84375)"><rect class="markmap-node-rect" y="-10" x="-1" width="158.8369140625" height="20" fill="#dfdfdf" rx="10" ry="10" stroke="#929292" stroke-width="1"></rect><circle class="markmap-node-circle" cx="156.8369140625" stroke="#929292" r="4.5" style="display: none;"></circle><text class="markmap-node-text" x="10" dy="3" text-anchor="start" style="fill-opacity: 1;">[kubernetes Node1] 에서 실행</text></g><g class="markmap-node" transform="translate(374.8271484375,-114.84375)"><rect class="markmap-node-rect" y="-10" x="-1" width="134.3984375" height="20" fill="#dfdfdf" rx="10" ry="10" stroke="#929292" stroke-width="1"></rect><circle class="markmap-node-circle" cx="132.3984375" stroke="#929292" r="4.5" style="display: none;"></circle><text class="markmap-node-text" x="10" dy="3" text-anchor="start" style="fill-opacity: 1;">Kubernetes Provisioning</text></g><g class="markmap-node" transform="translate(374.8271484375,-139.84375)"><rect class="markmap-node-rect" y="-10" x="-1" width="104.369140625" height="20" fill="#dfdfdf" rx="10" ry="10" stroke="#929292" stroke-width="1"></rect><circle class="markmap-node-circle" cx="102.369140625" stroke="#929292" r="4.5" style="display: none;"></circle><text class="markmap-node-text" x="10" dy="3" text-anchor="start" style="fill-opacity: 1;">Docker Hub Push</text></g><g class="markmap-node" transform="translate(374.8271484375,-164.84375)"><rect class="markmap-node-rect" y="-10" x="-1" width="88.7978515625" height="20" fill="#dfdfdf" rx="10" ry="10" stroke="#929292" stroke-width="1"></rect><circle class="markmap-node-circle" cx="86.7978515625" stroke="#929292" r="4.5" style="display: none;"></circle><text class="markmap-node-text" x="10" dy="3" text-anchor="start" style="fill-opacity: 1;">Docker Check</text></g><g class="markmap-node" transform="translate(374.8271484375,-189.84375)"><rect class="markmap-node-rect" y="-10" x="-1" width="82.689453125" height="20" fill="#dfdfdf" rx="10" ry="10" stroke="#929292" stroke-width="1"></rect><circle class="markmap-node-circle" cx="80.689453125" stroke="#929292" r="4.5" style="display: none;"></circle><text class="markmap-node-text" x="10" dy="3" text-anchor="start" style="fill-opacity: 1;">Docker Build</text></g><g class="markmap-node" transform="translate(374.8271484375,-214.84375)"><rect class="markmap-node-rect" y="-10" x="-1" width="174.9501953125" height="20" fill="#dfdfdf" rx="10" ry="10" stroke="#929292" stroke-width="1"></rect><circle class="markmap-node-circle" cx="172.9501953125" stroke="#929292" r="4.5" style="display: none;"></circle><text class="markmap-node-text" x="10" dy="3" text-anchor="start" style="fill-opacity: 1;">Docker File Edit [/docker/build.sh]</text></g><g class="markmap-node" transform="translate(374.8271484375,-239.84375)"><rect class="markmap-node-rect" y="-10" x="-1" width="64.349609375" height="20" fill="#dfdfdf" rx="10" ry="10" stroke="#929292" stroke-width="1"></rect><circle class="markmap-node-circle" cx="62.349609375" stroke="#929292" r="4.5" style="display: none;"></circle><text class="markmap-node-text" x="10" dy="3" text-anchor="start" style="fill-opacity: 1;">Git Push</text></g><g class="markmap-node" transform="translate(261.9208984375,-152.34375)"><rect class="markmap-node-rect" y="-10" x="-1" width="54.90625" height="20" fill="#dfdfdf" rx="10" ry="10" stroke="#929292" stroke-width="1"></rect><circle class="markmap-node-circle" cx="52.90625" stroke="#929292" r="4.5"></circle><text class="markmap-node-text" x="10" dy="3" text-anchor="start" style="fill-opacity: 1;">Usage</text></g><g class="markmap-node" transform="translate(261.9208984375,-269.84375)"><rect class="markmap-node-rect" y="-10" x="-1" width="222.1767578125" height="20" fill="#dfdfdf" rx="10" ry="10" stroke="#929292" stroke-width="1"></rect><circle class="markmap-node-circle" cx="220.1767578125" stroke="#929292" r="4.5" style="display: none;"></circle><text class="markmap-node-text" x="10" dy="3" text-anchor="start" style="fill-opacity: 1;">Prerequisites (Docker QuickStart Deamon…</text></g><g class="markmap-node" transform="translate(430.3984375,-299.84375)"><rect class="markmap-node-rect" y="-10" x="-1" width="166.078125" height="20" fill="#dfdfdf" rx="10" ry="10" stroke="#929292" stroke-width="1"></rect><circle class="markmap-node-circle" cx="164.078125" stroke="#929292" r="4.5" style="display: none;"></circle><text class="markmap-node-text" x="10" dy="3" text-anchor="start" style="fill-opacity: 1;">KubernetesScript : ./kubernetes</text></g><g class="markmap-node" transform="translate(430.3984375,-324.84375)"><rect class="markmap-node-rect" y="-10" x="-1" width="127.142578125" height="20" fill="#dfdfdf" rx="10" ry="10" stroke="#929292" stroke-width="1"></rect><circle class="markmap-node-circle" cx="125.142578125" stroke="#929292" r="4.5" style="display: none;"></circle><text class="markmap-node-text" x="10" dy="3" text-anchor="start" style="fill-opacity: 1;">DockerScript : ./docker</text></g><g class="markmap-node" transform="translate(261.9208984375,-312.34375)"><rect class="markmap-node-rect" y="-10" x="-1" width="110.4775390625" height="20" fill="#dfdfdf" rx="10" ry="10" stroke="#929292" stroke-width="1"></rect><circle class="markmap-node-circle" cx="108.4775390625" stroke="#929292" r="4.5"></circle><text class="markmap-node-text" x="10" dy="3" text-anchor="start" style="fill-opacity: 1;">Folder Architecture</text></g><g class="markmap-node" transform="translate(687.1962890625,-304.84375)"><rect class="markmap-node-rect" y="-10" x="-1" width="157.73828125" height="20" fill="#dfdfdf" rx="10" ry="10" stroke="#929292" stroke-width="1"></rect><circle class="markmap-node-circle" cx="155.73828125" stroke="#929292" r="4.5" style="display: none;"></circle><text class="markmap-node-text" x="10" dy="3" text-anchor="start" style="fill-opacity: 1;">Getting Started with Kubeless</text></g><g class="markmap-node" transform="translate(687.1962890625,-329.84375)"><rect class="markmap-node-rect" y="-10" x="-1" width="165.8779296875" height="20" fill="#dfdfdf" rx="10" ry="10" stroke="#929292" stroke-width="1"></rect><circle class="markmap-node-circle" cx="163.8779296875" stroke="#929292" r="4.5" style="display: none;"></circle><text class="markmap-node-text" x="10" dy="3" text-anchor="start" style="fill-opacity: 1;">Deploy Containers Using YAML</text></g><g class="markmap-node" transform="translate(687.1962890625,-354.84375)"><rect class="markmap-node-rect" y="-10" x="-1" width="172.7431640625" height="20" fill="#dfdfdf" rx="10" ry="10" stroke="#929292" stroke-width="1"></rect><circle class="markmap-node-circle" cx="170.7431640625" stroke="#929292" r="4.5" style="display: none;"></circle><text class="markmap-node-text" x="10" dy="3" text-anchor="start" style="fill-opacity: 1;">Deploy Containers Using Kubectl</text></g><g class="markmap-node" transform="translate(687.1962890625,-379.84375)"><rect class="markmap-node-rect" y="-10" x="-1" width="217.2255859375" height="20" fill="#dfdfdf" rx="10" ry="10" stroke="#929292" stroke-width="1"></rect><circle class="markmap-node-circle" cx="215.2255859375" stroke="#929292" r="4.5" style="display: none;"></circle><text class="markmap-node-text" x="10" dy="3" text-anchor="start" style="fill-opacity: 1;">Launch a multi-node cluster using Kubea…</text></g><g class="markmap-node" transform="translate(687.1962890625,-404.84375)"><rect class="markmap-node-rect" y="-10" x="-1" width="159.9697265625" height="20" fill="#dfdfdf" rx="10" ry="10" stroke="#929292" stroke-width="1"></rect><circle class="markmap-node-circle" cx="157.9697265625" stroke="#929292" r="4.5" style="display: none;"></circle><text class="markmap-node-text" x="10" dy="3" text-anchor="start" style="fill-opacity: 1;">Launch A Single Node Cluster</text></g><g class="markmap-node" transform="translate(627.1962890625,-354.84375)"><rect class="markmap-node-rect" y="-10" x="-1" width="2" height="20" fill="#dfdfdf" rx="10" ry="10" stroke="#929292" stroke-width="1"></rect><circle class="markmap-node-circle" cx="0" stroke="#929292" r="4.5"></circle><text class="markmap-node-text" x="10" dy="3" text-anchor="start" style="fill-opacity: 1;"></text></g><g class="markmap-node" transform="translate(362.6005859375,-354.84375)"><rect class="markmap-node-rect" y="-10" x="-1" width="206.595703125" height="20" fill="#dfdfdf" rx="10" ry="10" stroke="#929292" stroke-width="1"></rect><circle class="markmap-node-circle" cx="204.595703125" stroke="#929292" r="4.5"></circle><text class="markmap-node-text" x="10" dy="3" text-anchor="start" style="fill-opacity: 1;">사전 준비 사항 : Kubernetes에 대한 이해</text></g><g class="markmap-node" transform="translate(362.6005859375,-392.34375)"><rect class="markmap-node-rect" y="-10" x="-1" width="129.3642578125" height="20" fill="#dfdfdf" rx="10" ry="10" stroke="#929292" stroke-width="1"></rect><circle class="markmap-node-circle" cx="127.3642578125" stroke="#929292" r="4.5" style="display: none;"></circle><text class="markmap-node-text" x="10" dy="3" text-anchor="start" style="fill-opacity: 1;">Kubernetes 환경 (출처)</text></g><g class="markmap-node" transform="translate(466.6005859375,-434.84375)"><rect class="markmap-node-rect" y="-10" x="-1" width="251.0537109375" height="20" fill="#dfdfdf" rx="10" ry="10" stroke="#929292" stroke-width="1"></rect><circle class="markmap-node-circle" cx="249.0537109375" stroke="#929292" r="4.5" style="display: none;"></circle><text class="markmap-node-text" x="10" dy="3" text-anchor="start" style="fill-opacity: 1;">개인 PC 사양 최소 16GB Memory, VirtualBox v.5…</text></g><g class="markmap-node" transform="translate(466.6005859375,-459.84375)"><rect class="markmap-node-rect" y="-10" x="-1" width="197.7333984375" height="20" fill="#dfdfdf" rx="10" ry="10" stroke="#929292" stroke-width="1"></rect><circle class="markmap-node-circle" cx="195.7333984375" stroke="#929292" r="4.5" style="display: none;"></circle><text class="markmap-node-text" x="10" dy="3" text-anchor="start" style="fill-opacity: 1;">Docker Build와 Kubernetes 배포 Script</text></g><g class="markmap-node" transform="translate(466.6005859375,-484.84375)"><rect class="markmap-node-rect" y="-10" x="-1" width="283.8076171875" height="20" fill="#dfdfdf" rx="10" ry="10" stroke="#929292" stroke-width="1"></rect><circle class="markmap-node-circle" cx="281.8076171875" stroke="#929292" r="4.5" style="display: none;"></circle><text class="markmap-node-text" x="10" dy="3" text-anchor="start" style="fill-opacity: 1;">VM과 Container의 개념을 정확히 이해하고 있어야 합니다.</text></g><g class="markmap-node" transform="translate(362.6005859375,-459.84375)"><rect class="markmap-node-rect" y="-10" x="-1" width="46" height="20" fill="#dfdfdf" rx="10" ry="10" stroke="#929292" stroke-width="1"></rect><circle class="markmap-node-circle" cx="44" stroke="#929292" r="4.5"></circle><text class="markmap-node-text" x="10" dy="3" text-anchor="start" style="fill-opacity: 1;">요건</text></g><g class="markmap-node" transform="translate(362.6005859375,-514.84375)"><rect class="markmap-node-rect" y="-10" x="-1" width="152.6943359375" height="20" fill="#dfdfdf" rx="10" ry="10" stroke="#929292" stroke-width="1"></rect><circle class="markmap-node-circle" cx="150.6943359375" stroke="#929292" r="4.5" style="display: none;"></circle><text class="markmap-node-text" x="10" dy="3" text-anchor="start" style="fill-opacity: 1;">구성요소 : Nginx, Html Code</text></g><g class="markmap-node" transform="translate(362.6005859375,-539.84375)"><rect class="markmap-node-rect" y="-10" x="-1" width="221.6396484375" height="20" fill="#dfdfdf" rx="10" ry="10" stroke="#929292" stroke-width="1"></rect><circle class="markmap-node-circle" cx="219.6396484375" stroke="#929292" r="4.5" style="display: none;"></circle><text class="markmap-node-text" x="10" dy="3" text-anchor="start" style="fill-opacity: 1;">목적 : Docker Build &amp; Kubernetes Build &amp; …</text></g><g class="markmap-node" transform="translate(261.9208984375,-447.34375)"><rect class="markmap-node-rect" y="-10" x="-1" width="42.6796875" height="20" fill="#dfdfdf" rx="10" ry="10" stroke="#929292" stroke-width="1"></rect><circle class="markmap-node-circle" cx="40.6796875" stroke="#929292" r="4.5"></circle><text class="markmap-node-text" x="10" dy="3" text-anchor="start" style="fill-opacity: 1;">Info</text></g><g class="markmap-node" transform="translate(426.345703125,-569.84375)"><rect class="markmap-node-rect" y="-10" x="-1" width="206.107421875" height="20" fill="#dfdfdf" rx="10" ry="10" stroke="#929292" stroke-width="1"></rect><circle class="markmap-node-circle" cx="204.107421875" stroke="#929292" r="4.5" style="display: none;"></circle><text class="markmap-node-text" x="10" dy="3" text-anchor="start" style="fill-opacity: 1;">Kubernetes is a portable, extensible, o…</text></g><g class="markmap-node" transform="translate(261.9208984375,-569.84375)"><rect class="markmap-node-rect" y="-10" x="-1" width="106.4248046875" height="20" fill="#dfdfdf" rx="10" ry="10" stroke="#929292" stroke-width="1"></rect><circle class="markmap-node-circle" cx="104.4248046875" stroke="#929292" r="4.5"></circle><text class="markmap-node-text" x="10" dy="3" text-anchor="start" style="fill-opacity: 1;">Kubernetes v.1.16</text></g><g class="markmap-node" transform="translate(101.2314453125,-361.09375)"><rect class="markmap-node-rect" y="-10" x="-1" width="102.689453125" height="20" fill="#dfdfdf" rx="10" ry="10" stroke="#929292" stroke-width="1"></rect><circle class="markmap-node-circle" cx="100.689453125" stroke="#929292" r="4.5"></circle><text class="markmap-node-text" x="10" dy="3" text-anchor="start" style="fill-opacity: 1;">MSA_miniProject</text></g><g class="markmap-node" transform="translate(0,0)"><rect class="markmap-node-rect" y="-10" x="-1" width="43.2314453125" height="20" fill="#dfdfdf" rx="10" ry="10" stroke="#929292" stroke-width="1"></rect><circle class="markmap-node-circle" cx="41.2314453125" stroke="#929292" r="4.5"></circle><text class="markmap-node-text" x="10" dy="3" text-anchor="start" style="fill-opacity: 1;">root</text></g></g>
</svg>